<svg height="60" viewBox="0 0 202.50001 56.249999" width="216" xmlns="http://www.w3.org/2000/svg"><g fill="#fff"><path d="m91.491598 41.144011q1.10362 0 1.889247-.772156.804333-.790989.804333-2.052803v-20.076042h6.079262q.93527 0 1.49643-.640324.56116-.640324.56116-1.506645 0-.847488-.57986-1.487812-.56117-.659157-1.47773-.659157h-17.545683q-.935271 0-1.515139.659157-.561163.640324-.561163 1.506645 0 .866321.561163 1.506645.561162.621491 1.515139.621491h6.097966v20.076042q0 1.261814.785628 2.052803.804332.772156 1.889247.772156z" stroke-width=".167789"/><path d="m114.03163 38.130722q-2.413 0-3.75979-1.694976-1.34679-1.694976-1.34679-4.745931 0-3.088621 1.32808-4.783598 1.34679-1.713808 3.7785-1.713808 2.4317 0 3.77849 1.713808 1.34679 1.713809 1.34679 4.783598 0 3.050955-1.34679 4.745931-1.34679 1.694976-3.77849 1.694976zm0 3.220452q1.98277 0 3.62885-.546159 1.64607-.546158 2.7684-1.450144 1.14103-.92282 1.90795-2.165803.78563-1.261814 1.14103-2.636629.37411-1.374813.37411-2.862624 0-1.563145-.39281-2.994457-.37411-1.431312-1.17845-2.655461-.80433-1.242982-1.94536-2.128137-1.14103-.903986-2.7684-1.412479-1.60867-.527325-3.53532-.527325-1.96407 0-3.61015.546158-1.62737.527326-2.7684 1.450146-1.12233.92282-1.90795 2.165801-.78563 1.242984-1.15974 2.655463-.3554 1.393645-.3554 2.900291 0 1.902139.59857 3.597113.59857 1.694977 1.7396 3.069789 1.15974 1.374815 3.0864 2.184636 1.92666.809821 4.37707.809821z" stroke-width=".167789"/><path d="m130.13699 48.262908q1.0475 0 1.70219-.677992.6734-.659155.6734-1.883304v-7.38256q1.83313 3.032122 5.91091 3.032122 3.7972 0 6.07926-2.561296 2.28206-2.58013 2.28206-7.005899 0-2.787292-.95397-4.99076-.93528-2.203469-2.80582-3.502949-1.85183-1.318314-4.33966-1.318314-4.37706 0-6.17278 3.276952v-.659158q0-1.148815-.63599-1.751474-.61728-.602658-1.66478-.602658-1.01009 0-1.70219.73449-.6921.734489-.6921 1.958638v20.772866q0 1.205314.65469 1.883304.65469.677992 1.66478.677992zm7.29511-10.132186q-1.68349 0-2.82452-.885155-1.12232-.903986-1.60866-2.297633-.46764-1.412479-.46764-3.239287 0-3.239286 1.12233-4.877761 1.14103-1.638477 3.83461-1.638477 1.0475 0 1.87054.414328.82304.414327 1.32808 1.073483.52376.659158.86045 1.544311.3367.885155.46764 1.751475.13094.866321.13094 1.770308 0 .998152-.14965 1.883305-.14964.885155-.50504 1.732643-.3367.828654-.86045 1.431312-.52375.602658-1.34679.979319-.82304.357829-1.85184.357829z" stroke-width=".167789"/><path d="m168.29604 29.147351q0-1.826806-.56116-3.239285-.56116-1.41248-1.53384-2.241135-.95398-.847488-2.16983-1.261815-1.19715-.43316-2.58135-.43316-4.09648 0-5.98573 2.824959v-8.248881q0-1.224149-.6734-1.902139-.65469-.67799-1.70219-.67799-1.0288 0-1.68349.67799-.65469.67799-.65469 1.902139l.0187 21.978181q0 1.224149.65469 1.920972.65469.67799 1.68349.67799 1.0475 0 1.70219-.67799.65469-.67799.65469-1.920972v-8.098216q0-2.335299 1.3842-3.785444 1.3842-1.450146 3.25474-1.450146 1.53385 0 2.50653 1.035818.99139 1.016985.99139 2.956791v9.341197q0 1.224149.65468 1.920972.6734.67799 1.68349.67799 1.0288 0 1.68349-.67799.67339-.696823.67339-1.920972z" stroke-width=".167789"/><path d="m55.167848 17.109375c-.02742.139147-.111599.62527-.17212.97229.514761.254467 1.01933.505026 1.475831.745239.551003.291026.979754.534803 1.287231.734253-.224414 1.349646-.56654 2.855135-1.029052 4.513551-.462984 1.659128-.992575 3.377172-1.589356 5.158081-.596546 1.781388-1.232597 3.572861-1.907959 5.374145-.675127 1.801764-1.339065 3.514616-1.990357 5.136109-.651293 1.621731-1.258622 3.100098-1.821899 4.438476-.338358.803818-.567524 1.353009-.83313 1.986695.287232.181098.568127.358001.888062.556641.468882.290545.928542.580731 1.378784.867919.450006.28743.825464.509639 1.126098.668336.361279-.865883.824667-1.968747 1.38794-3.306885.563275-1.338379 1.170606-2.818576 1.8219-4.440308.651291-1.621492 1.31523-3.332513 1.990356-5.134278.675361-1.801284 1.311413-3.592757 1.907959-5.374146.596782-1.780907 1.126372-3.500784 1.589355-5.159912.462513-1.65841.80464-3.162073 1.029053-4.511718-.307477-.199451-.736227-.44506-1.287231-.736084-.55124-.290066-1.145426-.590197-1.781616-.90088-.636899-.310921-1.266675-.608522-1.889649-.893554-.622976-.284792-1.148836-.516095-1.5802-.69397z" fill-opacity=".941176" stroke-width=".937486"/><path d="m44.441235 43.136362c.581915-1.708034 1.125603-3.504044 1.631771-5.388992.505931-1.884709.974344-3.748562 1.405707-5.591798.430892-1.843478.818598-3.619591 1.163831-5.328102.34476-1.708512.642561-3.239629.893403-4.593589.250369-1.353721.452836-2.484258.607399-3.391853.154092-.907115.255325-1.485089.304172-1.732963.431365.177875.958769.409448 1.581745.69424.622975.285032 1.252558.582529 1.889456.893451.63619.310682 1.229904.611535 1.781143.901601.551003.291025.980478.535543 1.287955.734993-.224413 1.349645-.567757 2.853912-1.03027 4.512323-.462983 1.659128-.992513 3.378427-1.589294 5.159335-.596546 1.781388-1.232501 3.572606-1.907862 5.37389-.675127 1.801764-1.338454 3.513392-1.989746 5.134884-.651293 1.621732-1.258692 3.101548-1.821965 4.439926-.563275 1.338138-1.026023 2.441108-1.387301 3.30699-.300632-.158697-.676307-.381161-1.126311-.66859-.450242-.287189-.910159-.576056-1.379042-.866602-.469119-.291264-.902842-.56359-1.301877-.817217-.399035-.254349-.689992-.43558-.872637-.543935z" stroke-width=".937486"/><path d="m37.567266 21.230636c1.041832 1.506904 1.927684 3.006857 2.657793 4.498179.729401 1.491561 1.344589 2.925829 1.845094 4.302561.500267 1.377215.901426 2.679875 1.203475 3.908459.301812 1.229064.538731 2.342342.709814 3.340071.161879.943554.277743 1.778753.347827 2.505834.07008.726842.110437 1.336462.122 1.827175.02761.586845.0236 1.094339-.01203 1.523447l-.987086 2.771925c-.399035-.254347-.689993-.435578-.872638-.543934.0071-.170203.02478-.466021.05309-.886259.02784-.419995.03846-.943072.03162-1.568751-.0073-.625441-.0446-1.347487-.112088-2.166866-.06773-.818896-.185713-1.720976-.35467-2.705521-.192321-1.120948-.461568-2.316691-.806802-3.587228-.345467-1.270057-.819306-2.5708-1.421044-3.901745-.601974-1.330947-1.365827-2.675558-2.291323-4.034312-.925968-1.358516-2.057234-2.694736-3.394271-4.009382l-.03021-.01582-.04413-.09781z" stroke-width=".937486"/><path d="m71.960465 12.632461c-.871693.124896-1.753299.244518-2.644814.358867-.891988.114588-1.845329.239723-2.860731.375647-1.01564.136163-2.131804.297258-3.348257.482564-1.216926.185786-2.585821.412085-4.10739.679377-1.946564.342086-3.824221.710781-5.633445 1.105607-1.809461.395544-3.590131.852458-5.341776 1.371699-1.751883.519003-3.489607 1.11999-5.212937 1.803203-1.724036.682973-5.243849 2.421211-5.243849 2.421211l-3.281238 1.273653c-.01793.0034-.02784-.0022-.03021-.01582-.02006-.01031-.03469-.04315-.04413-.09781-.02336-.136643.0061-.335134.0892-.596433.08259-.26106.201758-.549687.357266-.865883.155037-.315716.328479-.634789.519148-.957217.190667-.322189.374728-.604584.551947-.847184.07433-.09757.465343-.366778 1.173741-.808109.707454-.441332 1.693125-.991258 2.956537-1.64978 1.262706-.658281 2.777905-1.389199 4.544889-2.192754 1.766514-.803554 3.738798-1.604232 5.916614-2.402272 2.177581-.797561 4.540172-1.554609 7.087761-2.2697056 2.54712-.7148564 5.227566-1.3199193 8.040868-1.8142298.142292.088218.372605.2342102.690227.4389343.317388.2052036.681969.4437287 1.093511.7162948.411307.2730454.849512.5691045 1.314384.8888963.464871.319791.915585.635028 1.351431.94595.43632.310922.833702.610816 1.193329.899444.359391.289107.648697.540817.867918.755849z" stroke-width=".937486"/></g><text transform="matrix(.17979288 0 0 .17979288 31.327273 5.110406)"/></svg>