<svg height="60" viewBox="0 0 202.50001 56.249999" width="216" xmlns="http://www.w3.org/2000/svg"><g fill="#fff" transform="matrix(1.0013171 0 0 1.0013171 -17.034628 -81.157066)"><g transform="matrix(.26458333 0 0 .26458333 9.800187 38.106073)"><path d="m113.5871 308.1633c7.4531 2.5313 14.3203 3.7969 20.6016 3.7969 19.0781 0 28.6171-10.6172 28.6172-31.8516-.0001-18.8906-9.4923-28.3359-28.4766-28.3359-6.5625.0001-13.4766.5626-20.7422 1.6875zm-7.3828-59.9766c8.3906-2.0155 17.8125-3.0234 28.2656-3.0234 23.6718.0001 35.5077 11.6954 35.5078 35.0859-.0001 25.8281-11.9063 38.7422-35.7188 38.7422-5.9063 0-12.7969-1.1719-20.6719-3.5156v44.8487h-7.3828v-112.1377"/><path d="m180.0518 318.9915v-73.8281h5.2734l.9141 12.2344c7.4062-8.1562 15.6562-12.2343 24.75-12.2344v5.9062c-8.8125.0001-16.6641 4.2891-23.5547 12.8672v55.0547z"/><path d="m245.6728 245.1633c20.2031.0001 30.3046 11.1797 30.3047 33.5391-.0001 1.5938-.0469 3.2579-.1406 4.9922h-56.0391c0 19.3125 10.2187 28.9688 30.6562 28.9688 8.3906 0 15.8437-1.1719 22.3594-3.5156v6.3281c-6.5157 2.3438-13.9688 3.5156-22.3594 3.5156-25.3594 0-38.0391-12.5859-38.0391-37.7578 0-24.0468 11.0859-36.0702 33.2578-36.0703m-25.875 31.9219h49.0781c-.2813-17.1562-8.0157-25.7343-23.2031-25.7344-16.4063.0001-25.0313 8.5782-25.875 25.7344"/></g><path d="m89.768196 111.41494v1.74922h-2.511478v-1.74922z" stroke-width=".264583"/><g transform="matrix(.26458333 0 0 .26458333 9.800187 38.106073)"><path d="m327.2115 218.4446v100.5469h-7.3828v-100.5469z"/><path d="m397.895 253.4602c-6.7969-1.1249-13.4766-1.6874-20.0391-1.6875-19.9219.0001-29.8828 9.9141-29.8828 29.7422 0 20.2969 9.3047 30.4453 27.9141 30.4453 6.75 0 14.0859-1.2656 22.0078-3.7969zm7.3828 65.5312c-.0001 17.8125-10.8516 26.7187-32.5547 26.7188-9.0938 0-17.1563-1.1719-24.1875-3.5156v-6.3281c7.1719 2.3437 15.2812 3.5156 24.3281 3.5156 16.6874 0 25.0312-6.7969 25.0312-20.3906v-3.5156c-8.3438 2.3438-15.7032 3.5156-22.0781 3.5156-23.3438 0-35.0156-12.4453-35.0156-37.3359 0-24.3281 12.539-36.4921 37.6172-36.4922 9.5156.0001 18.4687 1.0079 26.8594 3.0234v70.8047"/><path d="m419.0081 318.9915v-73.8281h5.2734l.9141 9.4219c9.4219-6.2812 18.6562-9.4218 27.7031-9.4219 17.9531.0001 26.9296 7.7579 26.9297 23.2734v50.5547h-7.3828v-50.7656c-.0001-10.9687-6.6329-16.4531-19.8984-16.4531-8.8594.0001-17.5781 3.1173-26.1562 9.3516v57.8672h-7.3828"/><path d="m502.2072 245.1633v73.8281h-7.3828v-73.8281z"/><path d="m516.9218 233.2102h5.2031l1.3359 11.9531h22.1484v6.3281h-21.5156v46.6172c0 9.7031 3.5625 14.5547 10.6875 14.5547h10.8281v6.3281h-10.6875c-12 0-18-6.6328-18-19.8984v-65.8828"/><path d="m561.3084 245.1633v73.8281h-7.3828v-73.8281z"/><path d="m580.1715 281.7961c0 21.0469 9.0234 31.5703 27.0703 31.5703 18.0468 0 27.0702-10.5234 27.0703-31.5703-.0001-20.6718-9.0235-31.0077-27.0703-31.0078-18.0469.0001-27.0703 10.336-27.0703 31.0078m-7.3828.2812c0-25.0781 11.4843-37.6171 34.4531-37.6172 22.9687.0001 34.453 12.5391 34.4531 37.6172-.0001 25.0313-11.4844 37.5469-34.4531 37.5469-22.875 0-34.3594-12.5156-34.4531-37.5469"/><path d="m651.8393 318.9915v-73.8281h5.2734l.9141 9.4219c9.4218-6.2812 18.6562-9.4218 27.7031-9.4219 17.9531.0001 26.9296 7.7579 26.9297 23.2734v50.5547h-7.3828v-50.7656c-.0001-10.9687-6.6329-16.4531-19.8984-16.4531-8.8594.0001-17.5782 3.1173-26.1562 9.3516v57.8672h-7.3828"/></g></g></svg>