<svg enable-background="new 0 0 216 60" viewBox="0 0 216 60" xmlns="http://www.w3.org/2000/svg"><g fill="#fff"><path d="m133.2 22.5h8.7c1.5 0 3 .3 4.4.8 1.9.8 2.9 2.2 2.9 4.3v7.2c0 .6-.1 1-.8.9-1.8 0-3.5 0-5.3 0-.7 0-.9-.2-.9-.9 0-2 0-4 0-6s-.8-2.7-2.8-2.9c-.8 0-1 .2-1 1v7.8c0 .8-.2 1-1 1-1.6-.1-3.3-.1-4.9 0-.8 0-1.1-.2-1.1-1.1.1-2.5 0-5.1 0-7.6 0-.8-.2-1.2-1.1-1.2-3.3.1-2.7-.1-2.7 2.7v6.2c0 .7-.1 1-.9 1-1.8-.1-3.5 0-5.3 0-.7 0-.9-.2-.9-.9 0-3.1 0-6.2 0-9.3 0-2 1-2.9 3.2-3s4.4 0 6.6 0z"/><path d="m65.6 30.8c.5-1.3.9-2.5 1.3-3.7.5-1.4 1-2.7 1.4-4.1.3-.9.9-1.3 1.7-1.6.9-.2 1.8-.3 2.7-.1 1.3.2 2.1.8 2.5 2.1.7 2.1 1.5 4.2 2.2 6.3.1.3.2.7.5 1 .4-.2.4-.7.6-1.1.8-2.4 1.6-4.9 2.4-7.3.2-.7.5-.9 1.2-.8h5c-.5 1.5-1 2.9-1.5 4.3-1 2.7-1.9 5.4-3 8.1-.8 2.1-2 2.8-4.6 2.7-2.1-.1-3.1-.8-3.9-2.9s-1.5-4.3-2.3-6.5c-.6.8-.7 1.6-1 2.3-.6 1.6-1.1 3.2-1.7 4.7-.4 1.3-1.3 2-2.7 2.3-3 .6-4.8-.3-5.9-3.2-1.3-3.6-2.6-7.2-4-10.8-.3-.7-.2-1 .6-.9 1.3.1 2.7.1 4 0 .7 0 1 .2 1.2.9.8 2.5 1.6 5 2.4 7.4.4.1.4.5.9.9z"/><path d="m98.3 29.7c0-1.5 0-3.1 0-4.6 0-1.4.5-2 1.8-2.3.4-.1.8-.2 1.2-.2 4.1 0 8.2-.3 12.3.2 2.8.4 4.7 2.1 4.9 4.2.1 1.1 0 2.2 0 3.4v4.5c0 .7-.2.9-.9.9-1.8 0-3.5 0-5.3 0-.7 0-.9-.2-.9-.9 0-1.9 0-3.7 0-5.6 0-2.2-.8-3-2.9-3.3-3-.4-3.3-.1-3.3 2.8v6c0 .7-.1.9-.9.9-1.8 0-3.5 0-5.3 0-.7 0-.9-.2-.9-.9.2-1.7.2-3.4.2-5.1z"/><path d="m56 26.5c-1.2-.5-2.4-.9-3.6-1.4-3.1-1.2-6.3-1.2-9.5-.9-3.4.3-6.8.7-10.2-.1-4.4-1-7.6-3.4-8.8-8.2 4.5 2.3 9.1 1.2 13.6 1.1 3.8-.1 7.6-.4 11.3 1 3.5 1.4 6 3.7 7.2 7.4.1.2.1.4.2.6-.2.2-.2.3-.2.5z"/><path d="m184.6 35.7c-2.3-.1-4.9.2-7.5-.4-2.8-.7-4-2.2-4.1-5 0-.7 0-1.4 0-2.1.1-3 1.8-4.9 4.8-5.4 1-.2 2-.2 3-.2h9.2c.7 0 1 .2 1 .9 0 2.4 0 2.4-2.4 2.4-1.8 0-3.5 0-5.3 0-2.8.1-4.3 2.7-2.9 5.2.6 1.2 1.8 1.3 2.9 1.3h6.9c.8 0 1.1.2 1.1 1.1 0 2.3 0 2.3-2.3 2.3-1.4-.1-2.7-.1-4.4-.1z"/><path d="m59.3 34.9c-4.5-1.6-9-1.5-13.5-1.6-3.4-.1-6.6-.8-9.5-2.9-1.8-1.3-3.3-3-4.5-5.1 2.1.3 3.9.6 5.9.5 3.1-.1 6.2-.3 9.4-.4 6.3-.2 10.5 4.6 12.2 9.5z"/><path d="m184.9 46.4c.8-2.4 1.6-4.5 2.3-6.6.2-.6.5-.8 1.1-.8 1.3.1 2.7-.1 4 .1 0 1.3-.1 2.6-.1 3.9-.1 2.3-.1 4.7-.1 7 0 .6-.2.8-.8.8-2.4 0-2.4.1-2.3-2.4.1-1.9.3-3.8 0-5.7-.7 2.2-1.6 4.4-2.2 6.6-.3 1.2-.9 1.6-2 1.4-.3 0-.5 0-.8 0-.7.1-1-.2-1.1-.9-.5-2.4-1.1-4.7-1.8-7-.1 2.3-.3 4.7-.4 7 0 .7-.2.9-.9.9-2.2 0-2.2 0-2-2.1.2-2.9.5-5.8.7-8.7.1-.9.3-1.2 1.2-1.1 1 .1 1.9 0 2.9 0 .6 0 .9.1 1 .7.2 2.4.9 4.5 1.3 6.9z"/><path d="m167.2 50.9c-1.4 0-2.8 0-4.1 0-.6 0-.7-.2-.6-.7.4-3.5.5-7 .6-10.5 0-.5.2-.7.7-.7h8.3c.5 0 .7.1.7.7 0 2 .1 2-1.9 2-1.1 0-2.2.1-3.4 0-1-.1-.7.6-.8 1.1-.1.7.2.7.8.7h3.4c.6 0 .8.1.8.8-.1 1.9-.1 1.9-2 1.9-.7 0-1.3 0-2 0-1 0-1.6.8-1.3 1.8.1.4.4.2.6.2 1.5 0 3.1-.1 4.6-.1.2 0 .5-.1.5-.1.4.7.1 1.5.1 2.3 0 .5-.3.6-.7.6-1.5 0-2.9 0-4.3 0z"/><path d="m96.1 30.1v4.8c0 .6-.2.8-.8.8-1.8 0-3.7 0-5.5 0-.6 0-.8-.2-.8-.8 0-3.1 0-6.3 0-9.4 0-.6.2-.9.8-.8h5.4c.6 0 .8.2.8.8.1 1.6.1 3.1.1 4.6z"/><path d="m113.4 42.1c-1-.2-1.8-.6-2.8-.5-.5.1-1.1.1-1.3.7-.2.5.3.9.6 1.2.8.7 1.8 1.4 2.5 2.2 1.6 1.6 1.2 4-.9 5-2 .9-4 .5-6 .3-.6-.1-.4-.6-.4-.9-.2-2-.2-2 1.8-1.6.7.1 1.3.2 2 0 .9-.2 1.1-.8.4-1.5-.6-.6-1.3-1.2-2-1.8-1.3-1-2.3-2.2-1.7-3.9.6-1.8 2.1-2.2 3.7-2.4 1.1-.1 2.2.1 3.3.2.3 0 .5.1.6.5 0 .8.1 1.6.2 2.5z"/><path d="m142 42.1c-1.1-.3-2-.7-3-.6-.5.1-.9.2-1.1.6-.2.5.2.8.5 1.1.9.8 1.8 1.4 2.6 2.3 1.7 1.7 1.2 4.2-1 5.1-1.9.8-3.9.5-5.8.3-.6-.1-.4-.6-.5-1-.2-1.9-.1-1.9 1.7-1.6.6.1 1.2.1 1.8.1.4 0 .8-.1 1-.6s-.1-.8-.4-1.1c-.6-.6-1.2-1.1-1.8-1.6-1.3-1-2.3-2.2-1.7-4 .4-1.4 1.9-2.3 4-2.3 1 0 2 .1 3 .2.4 0 .6.2.6.6 0 .8.1 1.6.1 2.5z"/><path d="m130.2 39.1c-1.1 1.7-2 3.2-3.2 4.6-1.5 1.8-2.1 3.8-1.9 6.1.1 1-.3 1.3-1.3 1.2-.8-.1-2 .2-2.3-.2-.4-.5-.2-1.6 0-2.4.3-1.5-.1-2.7-.9-3.9-1-1.7-2-3.5-3-5.4h3.6c.5 0 .6.3.8.6.5 1.1 1 2.2 1.6 3.5.7-1.2 1.4-2.2 2-3.4.4-.7.8-.9 1.5-.8 1 .1 2 .1 3.1.1z"/><path d="m152.6 39.1h4.7c.7 0 .9.1.8.9-.2 1.6-.1 1.6-1.8 1.6-2.1 0-2.1 0-2.2 2.1-.1 2.2-.2 4.3-.2 6.5 0 .6-.2.9-.8.8-1-.1-2.2.3-2.8-.2s0-1.7 0-2.6c0-1.9.1-3.7.2-5.6.1-.9-.2-1.1-1-1-.6.1-1.2 0-1.8 0-.7.1-.9-.2-.8-.9.1-1.6 0-1.6 1.6-1.6z"/><path d="m119.8 23.9c-3.2-1.7-6.4-2.9-10-3.2-.6-.2-1.2 0-1.8-.1-.2 0-.5.1-.5-.3 2.5-.5 5.1-.9 7.7-.7 2.5.2 4.3 1.5 4.9 3.6.1.3.3.6-.3.7z"/><path d="m92.6 23.6c-.8 0-1.6-.1-2.5 0s-1.2-.3-1-1.1c.1-.5-.5-1.3.5-1.4 2-.1 3.9 0 5.9 0 .2 0 .4 0 .5.2 0 .7.1 1.4 0 2-.1.5-.8.2-1.2.2-.7.1-1.4.1-2.2.1z"/><path d="m107.5 20.3c.7.4 1.5-.1 2.2.4-1.2 0-2.4 0-3.6 0-.1 0-.1-.1-.1-.1s.1-.1.1-.1c.5-.1 1-.1 1.4-.2z"/><path d="m106.2 20.5v.2c-.4.2-.7.4-1.2.1.4-.1.8-.2 1.2-.3z"/><path d="m119.8 23.9c.3-.2.2-.5.3-.7.2.3.3.6.1.9-.1.1-.3 0-.4-.2z"/><path d="m171.1 27.8c0-3-1.3-4.5-4.2-5.1-2.5-.5-5.1-.1-7.1-.2-2.1 0-3.8 0-5.5 0-2.2 0-2.1 0-2.2 2.2 0 .9.2 1.2 1.1 1.2 2.9-.1 5.7 0 8.6 0 .6 0 1.1 0 1.6.3.4.2.7.6.6 1-.1.6-.6.3-.9.3-2.9 0-5.9 0-8.8.1-2.2 0-3.4 1.3-3.4 3.5v1.3c.1 1.8 1.2 3.1 3 3.3 3 .4 6 .1 9 .2 1.9 0 3.8.2 5.7-.2 1.6-.3 2.4-1.1 2.4-2.7.1-1.9.1-3.5.1-5.2zm-7.7 4.2c-.5.1-1.1.1-1.7.1-.9 0-1.8 0-2.7 0-.6 0-1.2 0-1.2-.8 0-.7.6-.7 1.1-.8h2.1 2.1c.4 0 .9-.1.9.5.2.6-0 1-.6 1z"/></g></svg>