<svg height="60" viewBox="0 0 202.50001 56.249999" width="216" xmlns="http://www.w3.org/2000/svg"><g fill="#fff" stroke="#fff" transform="matrix(.44252435327 0 0 .44252435327 16.25542847435 -417.16345779003)"><g stroke-width="1.000312" transform="translate(-0 -.000011)"><path d="m28.711905 1016.3423q0-6.48-2.96-10.08-2.88-3.6-9.36-3.6-1.36 0-2.88.16-1.44.08-2.88.48v23.92q1.28.88 3.36 1.68 2.16.72 4.56.72 5.28 0 7.68-3.6 2.48-3.6 2.48-9.68zm9.92-.16q0 4.8-1.28 8.8-1.2 4-3.52 6.88-2.32 2.88-5.84 4.48-3.44 1.6-7.84 1.6-2.96 0-5.44-.72-2.48-.72-4.08-1.6v16.24h-9.6799996v-55.28004q2.96-.8 7.28-1.52 4.3199996-.72 9.1199996-.72 4.96 0 8.88 1.52 3.92 1.52 6.64 4.40004 2.8 2.8 4.24 6.88 1.52 4 1.52 9.04z"/><path d="m63.328155 1030.2623q4.48 0 6.8-.48v-10.72q-.8-.24-2.32-.48-1.52-.24-3.36-.24-1.6 0-3.28.24-1.6.24-2.96.88-1.28.64-2.08 1.84-.8 1.12-.8 2.88 0 3.44 2.16 4.8 2.16 1.28 5.84 1.28zm-.8-36.08004q4.8 0 8.08 1.2 3.28 1.2 5.2 3.36 2 2.16004 2.8 5.28004.88 3.04.88 6.72v25.36q-2.24.48-6.8 1.12-4.48.72-10.16.72-3.76 0-6.88-.72-3.12-.72-5.36-2.32-2.16-1.6-3.44-4.16-1.2-2.56-1.2-6.32 0-3.6 1.36-6.08 1.44-2.48 3.84-4 2.4-1.6 5.52-2.24 3.2-.72 6.64-.72 1.6 0 3.36.24 1.76.16 3.76.64v-1.6q0-1.68-.4-3.2-.4-1.52-1.44-2.64-.96-1.2-2.64-1.84-1.6-.64-4.08-.64-3.36 0-6.16.48-2.8.48-4.56 1.12l-1.2-7.84004q1.84-.64 5.36-1.28 3.52-.64 7.52-.64z"/><path d="m115.10441 1003.9423q-1.2-.4-3.36-.8-2.08-.48-4.88-.48-1.6 0-3.44.32-1.76.32-2.48.56v33.52h-9.680005v-39.84004q2.8-1.04 6.96-1.92 4.240005-.96 9.360005-.96.96 0 2.24.16 1.28.08 2.56.32 1.28.16 2.48.48 1.2.24 1.92.48z"/><path d="m133.21191 1037.0623h-9.68v-41.84004h9.68z"/><path d="m155.16316 1011.5423q1.84-1.92 3.92-4.08 2.08-2.24 4.08-4.4 2-2.24 3.76-4.24004 1.84-2.08 3.12-3.6h11.44q-4 4.48-8.48 9.28004-4.4 4.8-8.88 9.36 2.4 2 5.04 4.88 2.64 2.8 5.12 6 2.48 3.2 4.64 6.4 2.16 3.2 3.6 5.92h-11.2q-1.44-2.48-3.36-5.2-1.84-2.72-4-5.28-2.16-2.56-4.4-4.8-2.24-2.32-4.4-3.92v19.2h-9.68v-60.48004l9.68-1.6z"/><path d="m204.26566 1030.2623q4.48 0 6.8-.48v-10.72q-.8-.24-2.32-.48-1.52-.24-3.36-.24-1.6 0-3.28.24-1.6.24-2.96.88-1.28.64-2.08 1.84-.8 1.12-.8 2.88 0 3.44 2.16 4.8 2.16 1.28 5.84 1.28zm-.8-36.08004q4.8 0 8.08 1.2 3.28 1.2 5.2 3.36 2 2.16004 2.8 5.28004.88 3.04.88 6.72v25.36q-2.24.48-6.8 1.12-4.48.72-10.16.72-3.76 0-6.88-.72-3.12-.72-5.36-2.32-2.16-1.6-3.44-4.16-1.2-2.56-1.2-6.32 0-3.6 1.36-6.08 1.44-2.48 3.84-4 2.4-1.6 5.52-2.24 3.2-.72 6.64-.72 1.6 0 3.36.24 1.76.16 3.76.64v-1.6q0-1.68-.4-3.2-.4-1.52-1.44-2.64-.96-1.2-2.64-1.84-1.6-.64-4.08-.64-3.36 0-6.16.48-2.8.48-4.56 1.12l-1.2-7.84004q1.84-.64 5.36-1.28 3.52-.64 7.52-.64z"/><path d="m246.76191 1037.8623q-4.32-.08-7.2-.96-2.8-.88-4.48-2.48-1.68-1.68-2.4-4.08-.64-2.48-.64-5.6v-48.16004l9.68-1.6v47.92004q0 1.76.24 2.96.32 1.2 1.04 2.08.72.8 1.92 1.28 1.28.4 3.2.64z"/><path d="m283.71191 1016.3423q0-6.48-2.96-10.08-2.88-3.6-9.36-3.6-1.36 0-2.88.16-1.44.08-2.88.48v23.92q1.28.88 3.36 1.68 2.16.72 4.56.72 5.28 0 7.68-3.6 2.48-3.6 2.48-9.68zm9.92-.16q0 4.8-1.28 8.8-1.2 4-3.52 6.88-2.32 2.88-5.84 4.48-3.44 1.6-7.84 1.6-2.96 0-5.44-.72-2.48-.72-4.08-1.6v16.24h-9.68v-55.28004q2.96-.8 7.28-1.52 4.32-.72 9.12-.72 4.96 0 8.88 1.52 3.92 1.52 6.64 4.40004 2.8 2.8 4.24 6.88 1.52 4 1.52 9.04z"/><path d="m318.32816 1030.2623q4.48 0 6.8-.48v-10.72q-.8-.24-2.32-.48-1.52-.24-3.36-.24-1.6 0-3.28.24-1.6.24-2.96.88-1.28.64-2.08 1.84-.8 1.12-.8 2.88 0 3.44 2.16 4.8 2.16 1.28 5.84 1.28zm-.8-36.08004q4.8 0 8.08 1.2 3.28 1.2 5.2 3.36 2 2.16004 2.8 5.28004.88 3.04.88 6.72v25.36q-2.24.48-6.8 1.12-4.48.72-10.16.72-3.76 0-6.88-.72-3.12-.72-5.36-2.32-2.16-1.6-3.44-4.16-1.2-2.56-1.2-6.32 0-3.6 1.36-6.08 1.44-2.48 3.84-4 2.4-1.6 5.52-2.24 3.2-.72 6.64-.72 1.6 0 3.36.24 1.76.16 3.76.64v-1.6q0-1.68-.4-3.2-.4-1.52-1.44-2.64-.96-1.2-2.64-1.84-1.6-.64-4.08-.64-3.36 0-6.16.48-2.8.48-4.56 1.12l-1.2-7.84004q1.84-.64 5.36-1.28 3.52-.64 7.52-.64z"/><path d="m355.94441 1011.5423q1.84-1.92 3.92-4.08 2.08-2.24 4.08-4.4 2-2.24 3.76-4.24004 1.84-2.08 3.12-3.6h11.44q-4 4.48-8.48 9.28004-4.4 4.8-8.88 9.36 2.4 2 5.04 4.88 2.64 2.8 5.12 6 2.48 3.2 4.64 6.4 2.16 3.2 3.6 5.92h-11.2q-1.44-2.48-3.36-5.2-1.84-2.72-4-5.28-2.16-2.56-4.4-4.8-2.24-2.32-4.4-3.92v19.2h-9.68v-60.48004l9.68-1.6z"/></g><rect height="12.258438" ry="6.129219" stroke-width="1.003" width="133.98048" x=".5015" y="976.7793"/></g></svg>