<svg height="60" viewBox="0 0 202.50001 56.249996" width="216" xmlns="http://www.w3.org/2000/svg"><g fill="#fff" transform="matrix(.35882723 0 0 .35882723 -6.398173 -98.9177933622)"><path d="m218.31 344.84a25.26 25.26 0 0 0 -8.21-5.84 26 26 0 0 0 -10.75-2.17 25.44 25.44 0 0 0 -10.75 2.23 24.41 24.41 0 0 0 -8.21 6.09 27 27 0 0 0 -5.19 9.1 34.19 34.19 0 0 0 -1.79 11.13 35.54 35.54 0 0 0 1.79 11.55 26.35 26.35 0 0 0 5.19 9 23 23 0 0 0 8.22 5.89 27.09 27.09 0 0 0 10.74 2.07 31.3 31.3 0 0 0 10.4-1.59 29.85 29.85 0 0 0 7.56-3.81 18.4 18.4 0 0 0 4.63-4.58 8.83 8.83 0 0 0 1.68-3.92 2.69 2.69 0 0 0 -.9-2.28 3.25 3.25 0 0 0 -2.28-.94h-8.35a5.48 5.48 0 0 0 -2.13.34 10.85 10.85 0 0 0 -2 1.19 11.12 11.12 0 0 1 -3.34 1.67 17.72 17.72 0 0 1 -5.32.66 16 16 0 0 1 -4.39-.61 11.42 11.42 0 0 1 -3.74-1.82 9.09 9.09 0 0 1 -2.56-3 8.23 8.23 0 0 1 -.94-3.69h34.5a3.21 3.21 0 0 0 3.18-3.18v-4.7a29.19 29.19 0 0 0 -1.85-10.31 26 26 0 0 0 -5.19-8.48zm-30.54 14.16a11.9 11.9 0 0 1 .9-2.78 9.88 9.88 0 0 1 2.17-3 11.08 11.08 0 0 1 3.49-2.22 13.21 13.21 0 0 1 5-.86 14.2 14.2 0 0 1 5.34.86 9.34 9.34 0 0 1 3.32 2.21 8.26 8.26 0 0 1 1.8 3 18.4 18.4 0 0 1 .71 2.81h-22.73z"/><path d="m161.07 344.29a18 18 0 0 0 -6.55-5.43 22.55 22.55 0 0 0 -10.08-2 20.64 20.64 0 0 0 -4.78.58 21.14 21.14 0 0 0 -4.73 1.75 22.92 22.92 0 0 0 -4.3 2.86 17.65 17.65 0 0 0 -3.1 3.37 19 19 0 0 0 -6.41-6.07 21.48 21.48 0 0 0 -10.94-2.5 18.13 18.13 0 0 0 -7.56 1.65 17.19 17.19 0 0 0 -5.54 4v-1.44a3.21 3.21 0 0 0 -3.18-3.18h-7.9a3.21 3.21 0 0 0 -3.18 3.18v48.66a3.21 3.21 0 0 0 3.18 3.18h7.9a3.21 3.21 0 0 0 3.18-3.18v-27.57c0-4.54 1-7.77 2.91-9.6a9.94 9.94 0 0 1 7.06-2.77 9.78 9.78 0 0 1 7.36 2.71c1.73 1.8 2.61 5.05 2.61 9.66v27.57a3.21 3.21 0 0 0 3.18 3.18h7.93a3.21 3.21 0 0 0 3.18-3.18v-28.08c.13-4.4 1.17-7.51 3.07-9.24a9.92 9.92 0 0 1 6.91-2.62 9.78 9.78 0 0 1 7.36 2.71c1.73 1.8 2.61 5.05 2.61 9.66v27.57a3.21 3.21 0 0 0 3.18 3.18h7.93a3.21 3.21 0 0 0 3.18-3.18v-28.09a43.38 43.38 0 0 0 -1-9.42 21.05 21.05 0 0 0 -3.48-7.92z"/><path d="m514 379.65h-6.37c-3 0-5.08-.61-6.15-1.81a7.17 7.17 0 0 1 -1.63-4.93v-21.77h13.15a3.21 3.21 0 0 0 3.18-3.18v-6.89a3.21 3.21 0 0 0 -3.18-3.18h-13.12v-19.56a3.22 3.22 0 0 0 -3.18-3.18h-7.94a3.22 3.22 0 0 0 -3.18 3.18v19.55h-6.53a3.21 3.21 0 0 0 -3.18 3.18v6.94a3.21 3.21 0 0 0 3.18 3.18h6.53v22.09c0 6.62 1.81 11.61 5.39 14.83s8.72 4.84 15.33 4.84h7.7a3.21 3.21 0 0 0 3.18-3.18v-6.89a3.21 3.21 0 0 0 -3.18-3.22z"/><path d="m342.26 344.29a18.82 18.82 0 0 0 -7-5.43 25.79 25.79 0 0 0 -10.8-2 20.11 20.11 0 0 0 -8.82 1.81 24.09 24.09 0 0 0 -5.85 4v-24.34a3.22 3.22 0 0 0 -3.18-3.18h-7.93a3.22 3.22 0 0 0 -3.18 3.18v71.39a3.21 3.21 0 0 0 3.18 3.18h7.93a3.21 3.21 0 0 0 3.18-3.18v-26.52c0-4.07 1-7.36 3.1-9.79a10.52 10.52 0 0 1 8.44-3.63c3.9 0 6.82 1.22 8.69 3.62s2.85 5.73 2.85 9.8v26.52a3.21 3.21 0 0 0 3.13 3.18h8a3.21 3.21 0 0 0 3.18-3.18v-28.09a39.38 39.38 0 0 0 -1.18-9.43 20.88 20.88 0 0 0 -3.74-7.91z"/><path d="m466.63 337.88h-7.93a3.21 3.21 0 0 0 -3.18 3.18v26.52c0 4.07-1 7.37-2.85 9.8s-4.62 3.62-8.17 3.62c-3.89 0-6.73-1.21-8.42-3.6s-2.6-5.73-2.6-9.81v-26.53a3.21 3.21 0 0 0 -3.18-3.18h-7.93a3.21 3.21 0 0 0 -3.18 3.18v28.09a41.21 41.21 0 0 0 1.05 9.43 21.11 21.11 0 0 0 3.61 7.91 18.05 18.05 0 0 0 6.82 5.43 25.05 25.05 0 0 0 10.7 2 18.12 18.12 0 0 0 8.73-2 27.14 27.14 0 0 0 5.42-3.8v1.55a3.21 3.21 0 0 0 3.18 3.18h7.93a3.21 3.21 0 0 0 3.18-3.18v-48.61a3.21 3.21 0 0 0 -3.18-3.18z"/><path d="m281.21 337.88h-7.93a3.21 3.21 0 0 0 -3.18 3.18v1.5c-.45-.44-1-.91-1.6-1.41a17.57 17.57 0 0 0 -3.36-2.08 23 23 0 0 0 -4.56-1.59 25 25 0 0 0 -5.88-.64 22 22 0 0 0 -9.61 2.07 22.85 22.85 0 0 0 -7.32 5.52 26.56 26.56 0 0 0 -4.77 7.94 29.34 29.34 0 0 0 -2 9.35c-.07 1-.11 2.27-.11 3.68s0 2.63.1 3.67a29.38 29.38 0 0 0 2 9.36 26.58 26.58 0 0 0 4.77 7.94 22.81 22.81 0 0 0 7.32 5.51 22 22 0 0 0 9.61 2.07 25 25 0 0 0 5.88-.64 23.13 23.13 0 0 0 4.56-1.59 17.46 17.46 0 0 0 3.36-2.08c.61-.49 1.14-1 1.6-1.41v3a10.72 10.72 0 0 1 -1.16 5.1 11.19 11.19 0 0 1 -3 3.59 12.24 12.24 0 0 1 -4.06 2.08 15.48 15.48 0 0 1 -4.39.66c-3.27 0-5.69-.37-7.2-1.11a9.92 9.92 0 0 1 -3.59-2.84c-.49-.56-1.08-1.16-1.8-1.85a3.86 3.86 0 0 0 -2.75-1.09h-7.1a3.24 3.24 0 0 0 -2.28.93 2.67 2.67 0 0 0 -.9 2.27 12.81 12.81 0 0 0 2.25 6.29 20.84 20.84 0 0 0 5.42 5.42 28.6 28.6 0 0 0 8 3.81 33.65 33.65 0 0 0 10 1.43c8.34 0 15-2.19 19.72-6.52s7.17-10.83 7.17-19.32v-49a3.21 3.21 0 0 0 -3.21-3.2zm-11.11 31.44a12.17 12.17 0 0 1 -3.89 8.43 12.42 12.42 0 0 1 -8.38 2.94 12.75 12.75 0 0 1 -8.43-2.89c-2.28-1.91-3.64-5.11-4-9.52a27 27 0 0 1 0-5.77c.41-4.41 1.77-7.61 4-9.52a12.75 12.75 0 0 1 8.43-2.89 12.15 12.15 0 0 1 8.37 3 12.35 12.35 0 0 1 3.9 8.34 37.31 37.31 0 0 1 -.01 7.88z"/><path d="m405.45 315.15h-7.93a3.22 3.22 0 0 0 -3.18 3.18v24.23c-.45-.44-1-.91-1.6-1.41a17.57 17.57 0 0 0 -3.36-2.08 23 23 0 0 0 -4.56-1.59 25 25 0 0 0 -5.88-.64 22 22 0 0 0 -9.61 2.07 22.85 22.85 0 0 0 -7.32 5.52 26.56 26.56 0 0 0 -4.77 7.94 29.34 29.34 0 0 0 -2 9.35c-.07 1-.11 2.27-.11 3.68s0 2.63.1 3.67a29.38 29.38 0 0 0 2 9.36 26.58 26.58 0 0 0 4.77 7.94 22.81 22.81 0 0 0 7.32 5.51 22 22 0 0 0 9.61 2.07 25 25 0 0 0 5.88-.64 23.13 23.13 0 0 0 4.56-1.59 17.46 17.46 0 0 0 3.36-2.08c.61-.49 1.14-1 1.6-1.41v1.5a3.21 3.21 0 0 0 3.18 3.18h7.93a3.21 3.21 0 0 0 3.18-3.18v-71.4a3.22 3.22 0 0 0 -3.17-3.18zm-11.11 54.18a12.17 12.17 0 0 1 -3.89 8.43 12.42 12.42 0 0 1 -8.38 2.94 12.75 12.75 0 0 1 -8.43-2.89c-2.28-1.91-3.64-5.11-4-9.52a27 27 0 0 1 0-5.77c.41-4.41 1.77-7.61 4-9.52a12.75 12.75 0 0 1 8.43-2.89 12.15 12.15 0 0 1 8.37 3 12.35 12.35 0 0 1 3.9 8.34 37.31 37.31 0 0 1 0 7.87z"/></g></svg>