<svg height="60" viewBox="0 0 202.50001 56.249999" width="216" xmlns="http://www.w3.org/2000/svg"><g fill="#fff" stroke-width=".772533" transform="matrix(1.06823 0 0 .93612798 10.545661 -996.180759)"><path d="m30.779454 1102.3351q0 1.5451-.494421 2.8121-.494421 1.2669-1.545067 2.194-1.050645.8961-2.657515 1.3905-1.575968.4944-3.800864.4944-2.719318 0-4.944214-1.0506-2.224896-1.0506-3.46095-2.8738l3.121035-2.7811q1.14335 1.3287 2.53391 1.9158 1.421461.5563 2.99743.5563 1.946784 0 2.842923-.5563.92704-.5562.92704-1.7922 0-.5254-.185408-.8962-.185408-.4017-.710731-.7416-.494422-.3399-1.452363-.6489-.957941-.3091-2.472107-.649-1.483264-.3399-2.750219-.8034-1.236053-.4635-2.132192-1.1743-.896139-.7107-1.39056-1.7922-.494422-1.0816-.494422-2.6884 0-1.4833.587126-2.6576.618026-1.1742 1.668672-1.9776 1.050645-.8344 2.441206-1.267 1.421461-.4326 3.028331-.4326 2.533909 0 4.418891.8961 1.915883.8962 3.460949 2.503l-3.121035 3.0284q-1.050645-1.0816-2.255797-1.6378-1.174251-.5871-2.657515-.5871-.865238 0-1.452363.1854-.587125.1545-.957941.4326-.370816.2781-.525323.618-.154507.3399-.154507.7107 0 .5254.185408.8962.21631.3399.710731.618.494421.2781 1.328757.5253.834337.2472 2.132193.5563 1.297856.309 2.564811.7416 1.297856.4017 2.3176 1.1433 1.050645.7417 1.699573 1.885.648928 1.1434.648928 2.9047z"/><path d="m45.620304 1091.5197v17.3665h-4.326187v-17.3665h-6.211168v-4.2644h16.748524v4.2644z"/><path d="m68.373343 1100.3266v8.5596h-4.326187v-8.4669l-8.188854-13.164h4.975115l3.059232 5.1296c.185408.3296.391417.7004.618027 1.1125.247211.3914.473821.7931.67983 1.2051.226609.3914.432618.7622.618026 1.1125.185408.3296.329614.5974.432619.8034.103005-.206.247211-.4738.432619-.8034.185408-.3503.381116-.7211.587125-1.1125l.67983-1.1742c.226609-.4121.442919-.7932.648928-1.1434l7.824331-13.2227h4.913312z"/><path d="m81.980558 1108.8862v-21.6309h4.326188v17.3665h10.846369v4.2644z"/><path d="m103.35318 1108.8862v-21.6309h4.32619v21.6309z"/><path d="m129.13552 1108.8862-7.94165-11.8043q-.40171-.618-.86523-1.2978-.43262-.7108-.64893-1.1434 0 .309 0 .9271.0309.5871.0309 1.2978 0 .6798 0 1.3597.0309.6798.0309 1.1433v9.5176h-4.26438v-21.6309h4.14077l7.66354 11.4335q.40171.618.83433 1.3287.46352.6799.67983 1.1125 0-.309-.0309-.8961 0-.6181 0-1.2979 0-.7107-.0309-1.3906 0-.6798 0-1.1433v-9.1468h4.26438v21.6309z"/><path d="m140.46375 1108.8862v-21.6309h15.01805v4.2335h-10.69186v3.739h6.21117v4.2026h-6.21117v5.2223h11.15538v4.2335z"/></g></svg>